<svg id="svg" version="1.1" xmlns="http://www.w3.org/2000/svg" xmlns:xlink="http://www.w3.org/1999/xlink" width="400" height="303.04" viewBox="0, 0, 400,303.04"><g id="svgg"><path id="path0" d="M290.333 0.228 C 288.384 0.939,285.177 4.218,284.727 5.958 C 284.673 6.168,284.502 6.333,284.338 6.333 C 284.177 6.333,283.454 6.478,282.731 6.655 C 282.008 6.832,281.154 7.018,280.833 7.069 C 280.512 7.119,280.063 7.199,279.833 7.247 C 279.604 7.294,279.079 7.375,278.667 7.426 C 278.254 7.478,277.489 7.593,276.966 7.682 C 276.438 7.773,273.513 7.826,270.383 7.802 C 264.248 7.755,263.289 7.850,260.655 8.761 C 259.974 8.997,259.246 9.224,259.037 9.266 C 258.828 9.308,258.153 9.574,257.537 9.858 C 256.051 10.543,255.024 10.986,254.873 11.007 C 254.805 11.017,254.525 11.161,254.250 11.327 C 253.975 11.494,253.037 11.989,252.167 12.428 C 250.504 13.265,245.399 16.155,244.641 16.689 C 244.398 16.860,244.147 17.000,244.083 17.000 C 244.020 17.000,243.733 17.169,243.445 17.375 C 242.092 18.344,241.042 18.787,238.798 19.336 C 230.435 21.381,219.417 21.831,210.419 20.495 C 206.585 19.926,206.605 19.930,204.500 19.600 C 202.271 19.251,201.754 19.177,200.865 19.079 C 200.435 19.031,198.508 18.771,196.583 18.502 C 177.886 15.887,171.212 15.900,158.000 18.577 C 152.403 19.712,150.905 20.047,149.250 20.538 C 148.333 20.809,147.446 21.059,147.278 21.092 C 145.490 21.447,141.802 23.370,139.917 24.931 C 138.317 26.255,134.833 29.938,134.833 30.305 C 134.833 30.368,134.646 30.622,134.417 30.869 C 133.980 31.341,131.000 35.895,131.000 36.092 C 131.000 36.155,130.744 36.629,130.431 37.145 C 129.422 38.807,126.005 45.705,125.176 47.750 C 125.101 47.933,124.734 48.833,124.358 49.750 C 123.197 52.588,121.893 56.353,120.001 62.333 C 115.081 77.885,112.945 83.303,109.586 88.750 C 109.360 89.117,109.050 89.642,108.896 89.917 C 108.644 90.368,107.768 91.604,107.336 92.118 C 107.243 92.229,107.167 92.391,107.167 92.479 C 107.167 92.567,107.110 92.664,107.042 92.694 C 106.973 92.725,106.547 93.200,106.095 93.750 C 104.367 95.855,101.938 98.075,99.167 100.083 C 98.436 100.613,98.418 100.623,95.892 101.917 C 93.343 103.221,92.713 104.085,93.164 105.656 C 94.020 108.644,97.044 108.048,103.274 103.664 C 106.319 101.521,110.857 96.776,112.569 93.944 C 112.744 93.654,113.181 92.979,113.538 92.444 C 114.932 90.360,117.521 85.342,118.497 82.833 C 118.658 82.421,119.168 81.146,119.631 80.000 C 120.613 77.567,122.654 71.764,122.913 70.667 C 122.977 70.394,124.583 65.365,125.707 61.917 C 126.096 60.725,126.421 59.712,126.429 59.667 C 126.438 59.621,126.492 59.471,126.548 59.333 C 126.605 59.196,126.833 58.521,127.056 57.833 C 127.435 56.668,128.540 53.564,128.778 53.000 C 128.836 52.862,128.903 52.675,128.928 52.583 C 129.299 51.178,133.987 41.377,135.306 39.250 C 135.590 38.792,135.982 38.124,136.178 37.766 C 137.697 34.982,142.727 28.862,143.516 28.837 C 143.570 28.835,143.821 28.656,144.072 28.440 C 145.391 27.307,151.003 25.266,154.167 24.769 C 154.972 24.643,159.346 23.744,160.674 23.432 C 167.069 21.929,181.033 21.341,184.833 22.413 C 184.971 22.452,185.646 22.528,186.333 22.583 C 187.021 22.638,187.771 22.712,188.000 22.748 C 188.229 22.784,188.904 22.860,189.500 22.917 C 191.793 23.136,197.542 23.976,197.664 24.110 C 197.735 24.187,197.954 24.727,198.153 25.311 C 198.351 25.894,198.664 26.669,198.850 27.032 C 200.011 29.309,203.845 28.155,203.641 25.591 C 203.608 25.174,203.632 24.833,203.694 24.833 C 203.756 24.833,205.819 25.137,208.278 25.508 C 215.503 26.597,216.261 26.661,221.083 26.582 C 223.467 26.543,225.754 26.474,226.167 26.428 C 226.579 26.382,227.929 26.262,229.167 26.160 C 232.901 25.853,236.038 25.359,240.758 24.336 C 242.315 23.998,244.283 23.123,246.321 21.862 C 247.001 21.440,247.768 20.981,248.025 20.840 C 248.281 20.699,249.862 19.802,251.537 18.847 C 254.674 17.059,257.300 15.707,258.737 15.140 C 259.188 14.962,259.863 14.679,260.237 14.513 C 263.259 13.165,264.578 12.992,271.500 13.041 C 275.941 13.072,277.687 13.026,278.500 12.858 C 279.096 12.735,279.794 12.607,280.051 12.574 C 280.308 12.541,280.940 12.435,281.456 12.340 C 282.665 12.117,282.667 12.117,282.667 12.447 C 282.667 14.252,285.240 15.391,286.737 14.249 C 287.313 13.809,287.473 13.492,288.325 11.083 C 289.136 8.793,289.175 8.706,289.863 7.640 C 290.783 6.218,291.632 5.357,292.320 5.151 C 294.033 4.636,294.869 2.678,293.954 1.320 C 293.130 0.097,291.795 -0.306,290.333 0.228 M295.883 4.513 C 294.607 5.145,294.173 6.662,294.883 8.006 C 295.437 9.054,296.046 9.328,298.210 9.504 C 300.289 9.672,302.534 10.093,303.207 10.439 C 303.458 10.568,303.683 10.665,303.707 10.655 C 303.923 10.561,306.090 11.649,307.449 12.534 C 309.288 13.731,309.999 15.077,310.028 17.413 C 310.050 19.197,310.315 19.804,311.470 20.719 C 313.664 22.456,315.530 25.195,315.257 26.280 C 315.172 26.622,313.760 28.813,313.505 29.000 C 313.442 29.046,313.207 29.358,312.981 29.695 C 311.809 31.442,310.693 32.333,309.678 32.333 C 308.871 32.333,308.861 32.267,309.480 31.037 C 312.136 25.764,311.442 21.086,307.406 17.044 C 305.770 15.407,303.998 15.372,302.921 16.957 C 302.095 18.173,302.387 19.541,303.778 20.972 C 305.570 22.816,306.208 24.896,305.525 26.667 C 305.401 26.988,305.243 27.400,305.174 27.583 C 304.516 29.323,303.909 30.348,303.588 30.259 C 301.358 29.643,299.122 29.808,295.988 30.822 C 294.554 31.286,293.958 31.409,293.665 31.300 C 292.900 31.017,291.330 31.642,290.587 32.526 C 290.314 32.850,289.102 33.539,287.046 34.536 C 283.090 36.455,282.484 36.818,280.849 38.250 C 278.727 40.109,277.766 41.435,276.080 44.833 C 275.176 46.657,273.707 51.388,273.417 53.417 C 273.266 54.468,272.816 55.891,272.483 56.368 C 271.777 57.379,267.783 61.167,267.422 61.167 C 267.053 61.167,265.231 62.837,264.332 64.000 C 264.013 64.412,263.699 64.774,263.633 64.803 C 263.567 64.833,263.350 65.120,263.152 65.441 C 261.998 67.308,258.321 69.688,255.951 70.102 C 252.122 70.770,252.290 75.319,256.144 75.331 L 257.037 75.333 256.942 75.875 C 256.890 76.173,256.724 77.542,256.573 78.917 C 256.251 81.857,256.427 81.587,254.691 81.815 C 250.798 82.326,250.717 87.113,254.602 87.062 L 255.620 87.048 255.553 87.816 C 255.517 88.238,255.415 89.146,255.327 89.833 C 255.239 90.521,255.127 91.683,255.078 92.417 C 255.029 93.150,254.858 95.287,254.699 97.167 L 254.408 100.583 253.600 100.677 C 250.896 100.989,250.798 105.235,253.481 105.771 C 254.160 105.907,254.110 105.736,254.236 108.333 C 254.546 114.682,255.634 120.952,256.615 122.035 C 257.371 122.871,258.268 122.992,260.418 122.550 L 261.797 122.266 262.357 122.693 C 262.873 123.087,263.480 124.243,263.277 124.445 C 263.229 124.493,260.532 124.526,257.284 124.518 C 251.429 124.503,251.373 124.507,250.831 124.877 C 248.698 126.332,249.600 129.331,252.274 129.675 C 258.000 130.413,267.201 129.570,268.505 128.187 C 269.122 127.533,269.279 124.523,268.742 123.653 C 268.688 123.566,268.610 123.289,268.569 123.039 C 268.068 119.972,264.501 117.000,261.324 117.000 L 260.551 117.000 260.278 115.375 C 259.204 108.985,259.236 103.871,260.423 92.167 C 260.465 91.754,260.576 90.667,260.669 89.750 C 260.763 88.833,260.878 87.633,260.926 87.083 C 261.037 85.789,261.752 79.781,262.172 76.606 C 262.352 75.243,262.500 73.881,262.500 73.580 C 262.500 73.107,262.602 72.972,263.243 72.596 C 264.126 72.079,267.475 68.758,268.402 67.481 C 268.997 66.661,270.111 65.695,271.609 64.700 C 271.926 64.489,273.140 63.364,274.307 62.200 C 277.328 59.185,278.025 57.896,278.741 54.000 C 279.690 48.843,281.755 44.601,284.532 42.105 C 285.393 41.332,290.208 38.667,290.745 38.667 C 290.783 38.667,291.437 38.375,292.198 38.019 C 296.368 36.068,299.764 35.026,301.311 35.223 C 301.736 35.277,302.871 35.632,303.833 36.012 C 310.663 38.706,313.103 38.202,316.942 33.305 C 317.652 32.400,319.500 29.706,319.500 29.577 C 319.500 29.553,319.749 29.163,320.054 28.710 C 320.977 27.338,321.108 26.581,320.669 25.134 C 319.816 22.318,318.130 19.549,316.071 17.583 C 315.429 16.971,315.358 16.815,315.189 15.667 C 314.901 13.707,314.852 13.528,314.307 12.441 C 312.881 9.599,310.403 7.594,306.167 5.854 C 302.772 4.459,297.407 3.759,295.883 4.513 M294.250 12.677 C 291.636 13.593,291.153 16.161,293.320 17.621 C 294.702 18.552,297.718 17.460,298.160 15.868 C 298.849 13.388,296.858 11.763,294.250 12.677 M269.015 15.442 C 266.682 15.934,265.678 17.769,266.746 19.591 C 267.277 20.497,267.723 20.714,269.083 20.725 C 271.703 20.748,273.065 19.726,272.977 17.805 C 272.886 15.810,271.420 14.935,269.015 15.442 M280.000 15.800 C 277.544 16.564,276.575 18.340,277.708 20.000 C 279.034 21.943,283.003 21.276,283.662 19.000 C 284.308 16.772,282.357 15.067,280.000 15.800 M288.352 18.596 C 286.342 19.715,285.796 21.104,286.773 22.611 C 287.765 24.142,289.098 24.285,291.147 23.080 C 294.689 20.998,291.945 16.597,288.352 18.596 M274.707 21.943 C 271.150 23.398,272.716 27.844,276.462 26.926 C 278.320 26.471,279.000 25.689,279.000 24.011 C 279.000 21.894,277.083 20.971,274.707 21.943 M254.500 22.917 C 254.088 23.039,253.750 23.152,253.750 23.166 C 253.750 23.180,253.611 23.218,253.440 23.251 C 251.602 23.598,251.346 26.786,253.061 27.961 C 254.305 28.813,257.029 28.073,257.936 26.636 C 259.303 24.470,257.142 22.130,254.500 22.917 M296.000 22.775 C 293.302 23.660,292.265 25.461,293.328 27.417 C 294.803 30.131,300.009 27.592,299.163 24.570 C 298.794 23.252,297.238 22.369,296.000 22.775 M265.000 23.003 C 263.466 23.214,263.219 23.290,262.752 23.694 C 261.759 24.552,261.522 26.029,262.208 27.078 C 263.977 29.782,269.503 27.910,268.679 24.886 C 268.394 23.841,266.904 22.696,266.036 22.855 C 265.970 22.867,265.504 22.934,265.000 23.003 M185.800 24.687 C 183.701 25.944,184.381 28.928,186.911 29.563 C 189.925 30.321,191.728 28.986,191.089 26.469 C 190.663 24.791,187.440 23.705,185.800 24.687 M173.845 25.125 C 172.144 25.993,172.044 28.517,173.667 29.625 C 174.533 30.216,177.323 30.181,178.227 29.567 C 179.879 28.444,179.624 25.834,177.784 25.036 C 177.053 24.719,174.530 24.776,173.845 25.125 M164.728 26.744 C 163.317 27.410,162.833 28.077,162.833 29.361 C 162.833 31.730,165.277 32.731,167.435 31.245 C 170.294 29.276,167.877 25.258,164.728 26.744 M244.508 26.610 C 242.494 27.100,241.667 27.929,241.667 29.459 C 241.667 31.513,243.438 32.412,246.055 31.686 C 250.295 30.511,248.789 25.569,244.508 26.610 M283.182 27.220 C 281.060 28.095,280.600 30.069,282.136 31.711 C 283.680 33.361,287.517 31.864,287.568 29.591 C 287.619 27.328,285.586 26.230,283.182 27.220 M154.657 27.980 C 151.707 29.134,151.190 31.841,153.667 33.167 C 155.000 33.880,158.126 32.673,158.525 31.292 C 159.242 28.810,157.138 27.009,154.657 27.980 M211.000 28.965 C 209.317 29.169,208.228 31.269,209.014 32.792 C 210.061 34.822,214.173 35.026,215.090 33.094 C 216.220 30.711,214.116 28.587,211.000 28.965 M269.512 29.573 C 266.925 30.555,266.148 32.647,267.798 34.189 C 269.801 36.061,274.082 34.158,273.786 31.528 C 273.563 29.554,271.748 28.724,269.512 29.573 M230.799 29.674 C 228.866 30.217,228.296 32.790,229.798 34.190 L 230.487 34.833 232.119 34.833 C 234.074 34.833,234.729 34.574,235.286 33.583 C 235.951 32.401,235.619 30.872,234.520 30.054 C 234.035 29.693,231.612 29.446,230.799 29.674 M221.132 30.321 C 219.904 30.718,219.174 31.812,219.239 33.154 C 219.400 36.480,225.740 36.286,225.737 32.954 C 225.736 30.889,223.438 29.576,221.132 30.321 M145.903 31.012 C 144.590 31.394,143.604 33.079,143.974 34.311 C 144.515 36.116,146.127 36.781,147.917 35.937 C 151.491 34.252,149.714 29.906,145.903 31.012 M259.795 31.044 C 256.572 31.842,257.785 36.327,261.225 36.332 C 264.532 36.337,264.776 31.485,261.489 31.073 C 261.082 31.022,260.675 30.960,260.583 30.935 C 260.492 30.911,260.137 30.960,259.795 31.044 M193.437 31.176 C 191.999 31.596,191.238 33.462,191.919 34.897 C 192.841 36.842,196.870 36.889,197.851 34.966 C 199.111 32.496,196.524 30.274,193.437 31.176 M181.721 31.516 C 180.332 31.919,179.557 34.271,180.430 35.440 C 181.798 37.272,185.202 37.159,186.286 35.245 C 187.657 32.825,184.921 30.590,181.721 31.516 M171.972 32.004 C 170.254 32.912,170.130 34.096,171.454 36.944 C 172.001 38.121,172.578 39.496,172.736 40.000 C 172.894 40.504,173.090 41.067,173.172 41.250 C 173.297 41.534,174.333 46.130,174.333 46.405 C 174.333 46.457,174.118 46.500,173.854 46.500 C 170.180 46.500,170.000 51.536,173.664 51.801 L 174.667 51.873 174.667 52.574 C 174.667 56.264,173.379 62.606,171.889 66.250 C 171.477 67.258,171.097 68.233,171.044 68.417 C 170.695 69.635,167.172 75.652,166.056 76.936 C 165.888 77.130,165.563 77.541,165.333 77.849 C 164.834 78.521,163.059 80.459,161.989 81.500 C 160.794 82.663,158.386 84.667,158.182 84.667 C 158.117 84.667,157.912 84.808,157.727 84.980 C 157.412 85.273,156.337 86.003,155.583 86.434 C 155.400 86.539,154.387 87.056,153.333 87.582 C 152.279 88.109,150.310 89.168,148.958 89.937 C 147.606 90.705,146.465 91.333,146.422 91.333 C 146.380 91.333,145.990 91.558,145.556 91.833 C 144.567 92.461,144.400 92.459,144.272 91.818 C 143.942 90.169,141.655 89.407,140.140 90.441 C 139.024 91.203,138.820 92.251,139.400 94.226 C 139.557 94.763,139.663 95.218,139.635 95.238 C 139.237 95.511,137.125 96.788,136.532 97.113 C 134.673 98.133,134.198 98.804,133.503 101.391 C 132.860 103.783,132.635 109.729,133.071 112.833 C 133.472 115.697,133.675 116.830,134.058 118.333 C 135.347 123.401,135.590 123.695,138.453 123.637 C 139.677 123.612,140.210 123.671,140.589 123.871 C 141.083 124.132,141.645 124.911,141.467 125.089 C 141.268 125.288,138.189 125.449,134.376 125.460 C 129.411 125.475,128.500 125.877,128.500 128.050 C 128.500 130.542,130.305 131.005,138.667 130.654 C 145.737 130.357,147.138 129.565,146.952 125.967 C 146.722 121.521,143.854 118.390,139.963 118.339 C 139.480 118.333,139.156 117.571,138.931 115.917 C 138.881 115.550,138.805 115.063,138.762 114.833 C 137.792 109.669,137.943 103.154,139.062 101.911 C 139.383 101.554,141.964 99.971,144.083 98.832 C 144.542 98.586,145.440 98.063,146.079 97.671 C 146.719 97.279,147.731 96.699,148.329 96.382 C 148.927 96.065,149.535 95.700,149.680 95.570 C 149.825 95.440,149.983 95.333,150.031 95.333 C 150.079 95.333,151.123 94.783,152.351 94.110 C 153.579 93.438,155.333 92.510,156.250 92.049 C 160.998 89.659,165.091 86.403,168.683 82.156 C 170.397 80.131,170.470 80.039,170.906 79.379 C 171.134 79.033,171.532 78.450,171.791 78.083 C 172.407 77.208,174.632 73.457,174.772 73.060 C 174.831 72.890,175.162 72.150,175.506 71.417 C 177.093 68.037,178.137 64.805,179.110 60.260 C 179.231 59.693,179.408 59.497,180.417 58.810 C 181.795 57.871,181.694 57.892,182.283 58.414 C 182.540 58.642,182.825 58.886,182.917 58.958 C 185.307 60.813,187.767 62.668,191.333 65.305 C 192.103 65.873,195.921 68.434,196.170 68.548 C 196.306 68.610,197.092 69.068,197.917 69.566 C 201.292 71.601,205.331 73.383,207.583 73.831 C 208.133 73.940,208.921 74.096,209.333 74.178 C 213.521 75.006,223.122 75.345,228.833 74.867 C 232.438 74.566,232.640 74.543,234.417 74.251 C 234.692 74.206,235.254 74.125,235.667 74.071 C 236.079 74.016,237.504 73.754,238.833 73.487 C 240.162 73.221,241.297 73.002,241.355 73.001 C 241.541 72.999,242.495 79.035,243.079 83.917 C 243.222 85.108,243.412 86.683,243.502 87.417 C 243.730 89.267,244.137 93.033,244.251 94.333 C 244.303 94.929,244.377 95.642,244.416 95.917 C 244.752 98.316,244.878 108.355,244.608 111.300 C 244.514 112.326,244.526 113.002,244.642 113.300 C 246.175 117.220,246.741 118.837,247.320 120.960 C 247.740 122.498,249.292 123.288,250.816 122.740 C 253.120 121.911,253.030 120.156,250.328 113.314 L 249.827 112.045 250.019 109.981 C 250.249 107.501,250.110 100.257,249.767 96.826 C 249.711 96.275,249.741 96.232,250.203 96.197 C 253.675 95.932,253.361 90.714,249.885 90.916 L 249.196 90.957 249.073 89.770 C 249.006 89.117,248.932 88.358,248.909 88.083 C 248.861 87.497,248.677 85.799,248.585 85.083 C 248.145 81.662,247.590 77.692,247.327 76.083 C 247.146 74.983,246.963 73.746,246.918 73.333 C 246.874 72.921,246.700 71.816,246.531 70.878 L 246.225 69.172 247.021 67.544 C 248.388 64.749,249.596 60.527,250.049 56.958 C 250.217 55.633,250.267 55.500,250.594 55.500 C 250.981 55.500,252.117 54.796,252.444 54.354 C 253.412 53.044,252.596 50.822,251.000 50.421 L 250.583 50.317 250.548 47.533 C 250.482 42.387,249.900 37.285,249.270 36.333 C 248.177 34.682,245.700 34.801,244.809 36.547 C 244.438 37.275,244.438 37.589,244.815 40.667 C 245.144 43.356,245.140 43.500,244.724 43.500 C 241.606 43.500,241.597 48.263,244.714 48.774 L 245.344 48.878 245.256 50.731 C 245.050 55.067,244.941 56.079,244.391 58.750 C 243.728 61.971,242.251 65.829,241.227 67.013 C 241.102 67.158,241.000 67.358,241.000 67.458 C 241.000 67.740,235.865 68.835,233.333 69.092 C 232.921 69.134,232.356 69.203,232.079 69.244 C 225.329 70.255,213.130 69.874,208.033 68.493 C 206.570 68.096,203.696 66.805,201.798 65.691 C 201.038 65.245,200.342 64.851,200.250 64.815 C 199.964 64.702,197.147 62.832,195.724 61.810 C 194.976 61.273,194.312 60.833,194.247 60.833 C 194.183 60.833,193.782 60.547,193.356 60.197 C 192.931 59.847,192.321 59.402,192.000 59.208 C 191.679 59.014,191.264 58.713,191.078 58.538 C 190.892 58.364,190.440 58.003,190.075 57.736 C 188.498 56.583,185.079 53.914,185.028 53.796 C 184.997 53.725,184.900 53.667,184.812 53.667 C 184.725 53.667,184.490 53.515,184.292 53.330 C 183.614 52.699,181.395 52.470,180.292 52.917 C 180.026 53.025,179.999 52.889,179.987 51.393 C 179.980 50.489,179.953 49.637,179.927 49.500 C 179.901 49.362,179.831 48.572,179.772 47.744 C 179.677 46.424,179.574 45.721,179.080 43.000 C 178.479 39.692,176.679 34.935,175.224 32.804 C 174.469 31.700,173.159 31.378,171.972 32.004 M202.417 34.547 C 199.311 36.293,202.189 40.325,206.027 39.605 C 208.143 39.208,208.732 36.121,206.918 34.933 C 205.787 34.192,203.411 33.988,202.417 34.547 M239.583 34.897 C 235.853 35.635,236.591 40.488,240.374 40.096 C 242.552 39.870,243.583 38.965,243.583 37.279 C 243.583 35.108,242.320 34.356,239.583 34.897 M158.038 35.576 C 155.012 36.933,154.262 40.225,156.714 41.388 C 158.729 42.344,162.095 39.681,161.561 37.553 C 161.146 35.902,159.442 34.945,158.038 35.576 M165.664 35.769 C 165.090 36.000,164.233 37.088,163.344 38.713 C 162.127 40.940,163.601 42.879,166.362 42.686 C 167.092 42.635,169.006 40.011,169.268 38.703 C 169.681 36.639,167.638 34.976,165.664 35.769 M272.514 36.759 C 270.064 37.434,269.126 39.406,270.437 41.125 C 272.234 43.480,277.059 41.301,276.155 38.542 C 275.610 36.881,274.335 36.257,272.514 36.759 M139.644 37.153 C 138.532 37.744,138.308 38.435,138.378 41.042 C 138.412 42.302,138.379 43.333,138.305 43.333 C 137.763 43.333,134.869 46.611,134.085 48.114 C 133.902 48.464,133.715 48.788,133.668 48.833 C 133.462 49.036,131.493 52.972,130.584 55.000 C 129.167 58.161,128.370 60.111,126.602 64.750 C 126.288 65.575,125.828 66.762,125.582 67.388 C 125.335 68.014,125.115 68.614,125.092 68.721 C 125.070 68.829,124.977 69.104,124.886 69.333 C 124.662 69.898,123.148 74.030,122.413 76.083 C 120.858 80.427,120.334 81.850,119.838 83.083 C 119.542 83.817,119.276 84.529,119.246 84.667 C 119.096 85.345,116.633 90.615,115.884 91.859 C 115.627 92.286,115.122 93.149,114.761 93.776 C 111.545 99.369,106.292 104.474,101.123 107.030 C 94.436 110.335,84.905 110.577,84.245 107.457 C 83.747 105.103,79.314 105.044,79.140 107.389 C 78.810 111.821,83.273 115.015,89.770 114.996 C 93.025 114.987,99.707 113.772,100.750 113.000 C 100.842 112.932,101.217 112.782,101.583 112.666 C 105.795 111.335,112.068 106.376,116.025 101.250 C 116.238 100.975,116.473 100.675,116.548 100.583 C 118.230 98.532,121.923 92.164,123.024 89.417 C 123.171 89.050,123.669 87.813,124.129 86.667 C 124.983 84.544,126.506 80.552,126.577 80.250 C 126.599 80.158,126.659 79.971,126.711 79.833 C 126.762 79.696,126.919 79.246,127.059 78.833 C 127.198 78.421,127.625 77.258,128.006 76.250 C 128.387 75.242,128.724 74.304,128.754 74.167 C 128.783 74.029,128.819 73.917,128.833 73.917 C 128.847 73.917,128.883 73.804,128.913 73.667 C 128.944 73.529,129.361 72.404,129.841 71.167 C 130.321 69.929,130.881 68.467,131.086 67.917 C 131.290 67.367,131.649 66.429,131.883 65.833 C 132.117 65.237,132.602 64.000,132.961 63.083 C 133.320 62.167,133.844 60.892,134.127 60.250 C 134.409 59.608,134.796 58.687,134.987 58.202 C 135.610 56.616,136.854 54.074,138.181 51.673 C 138.927 50.323,139.275 49.911,139.280 50.370 C 139.286 50.907,139.729 52.556,140.256 54.000 C 140.869 55.684,142.986 62.199,143.094 62.736 C 143.129 62.911,143.280 63.420,143.428 63.867 C 143.681 64.629,143.668 65.773,143.391 67.083 C 143.352 67.267,143.215 68.092,143.086 68.917 C 142.820 70.625,141.823 74.607,141.427 75.542 C 141.281 75.885,141.196 76.167,141.238 76.167 C 141.363 76.167,140.357 78.514,139.894 79.304 C 139.374 80.191,137.424 82.108,135.796 83.333 C 135.613 83.471,135.211 83.796,134.902 84.056 C 134.593 84.316,134.116 84.691,133.842 84.889 C 124.094 91.952,123.004 94.396,124.503 105.833 C 124.689 107.254,124.917 109.054,125.010 109.833 C 125.102 110.612,125.323 112.075,125.500 113.083 C 125.823 114.923,126.382 118.881,126.583 120.750 C 126.770 122.492,126.975 122.951,127.819 123.516 C 129.369 124.552,131.542 123.751,131.889 122.014 C 132.039 121.261,131.648 118.097,130.329 109.417 C 128.345 96.360,128.518 95.644,134.811 90.827 C 135.944 89.960,137.288 88.931,137.797 88.542 C 138.307 88.153,139.008 87.571,139.355 87.250 C 139.702 86.929,140.024 86.667,140.071 86.667 C 140.412 86.667,143.208 83.820,143.929 82.738 C 144.842 81.369,146.394 77.884,146.743 76.417 C 146.765 76.325,146.826 76.137,146.878 76.000 C 146.930 75.862,147.011 75.563,147.057 75.333 C 147.103 75.104,147.289 74.354,147.470 73.667 C 149.083 67.540,149.275 64.460,148.238 61.333 C 146.930 57.386,146.961 57.532,147.384 57.314 C 149.977 55.982,148.768 51.922,145.916 52.384 C 144.867 52.555,144.036 48.386,143.582 40.667 C 143.393 37.447,141.786 36.013,139.644 37.153 M214.181 37.178 C 212.016 38.065,212.219 41.439,214.482 42.188 C 217.467 43.176,220.116 40.476,218.490 38.102 C 217.829 37.139,215.497 36.638,214.181 37.178 M228.986 37.234 C 228.948 37.271,228.623 37.348,228.264 37.404 C 225.274 37.875,225.016 42.012,227.936 42.671 C 230.853 43.329,233.388 40.586,231.917 38.363 C 231.348 37.504,229.458 36.776,228.986 37.234 M148.645 38.311 C 147.894 38.787,147.677 39.138,147.343 40.417 C 146.563 43.398,149.060 45.765,151.235 44.106 C 154.426 41.672,151.979 36.197,148.645 38.311 M186.960 39.559 C 184.940 40.126,184.337 42.551,185.857 43.992 C 187.181 45.248,190.507 44.934,191.327 43.476 C 192.757 40.932,190.210 38.647,186.960 39.559 M256.466 40.078 C 254.365 40.820,253.583 41.929,254.016 43.553 C 254.493 45.341,256.054 45.893,258.246 45.049 C 262.355 43.467,260.617 38.613,256.466 40.078 M196.371 40.766 C 194.953 41.386,194.583 43.776,195.737 44.868 C 197.418 46.459,200.525 46.121,200.771 44.319 C 200.782 44.235,200.812 44.148,200.836 44.125 C 200.861 44.102,200.898 43.783,200.919 43.417 C 201.036 41.377,198.438 39.862,196.371 40.766 M205.770 42.172 C 203.777 42.769,203.499 45.830,205.341 46.912 C 206.750 47.740,209.695 47.298,210.523 46.134 C 212.234 43.731,209.150 41.160,205.770 42.172 M219.659 44.376 C 216.519 46.491,219.752 50.437,223.382 48.920 C 224.607 48.409,225.288 46.097,224.458 45.268 C 224.298 45.107,224.167 44.908,224.167 44.825 C 224.167 44.032,220.684 43.684,219.659 44.376 M234.772 44.352 C 230.844 45.274,231.775 50.150,235.761 49.530 C 238.002 49.182,239.000 48.335,239.000 46.782 C 239.000 44.742,237.291 43.760,234.772 44.352 M164.392 44.808 C 163.175 45.177,161.500 47.261,161.500 48.406 C 161.500 51.106,164.227 51.772,166.663 49.667 C 169.323 47.368,167.663 43.817,164.392 44.808 M268.625 44.914 C 268.190 45.034,267.833 45.100,267.833 45.062 C 267.833 44.360,266.045 46.370,265.910 47.224 C 265.332 50.858,272.079 51.370,272.737 47.742 C 273.130 45.574,271.158 44.217,268.625 44.914 M153.062 46.840 C 151.925 47.186,151.494 47.924,151.066 50.262 C 150.514 53.275,154.738 54.922,155.998 52.184 C 157.467 48.991,155.824 46.000,153.062 46.840 M191.749 47.939 C 190.640 48.492,190.097 50.001,190.565 51.226 C 191.629 54.011,195.907 53.814,196.406 50.958 C 196.767 48.892,193.752 46.937,191.749 47.939 M212.583 50.071 C 212.492 50.108,212.222 50.180,211.985 50.232 C 209.863 50.696,209.584 54.032,211.587 55.002 C 214.372 56.350,217.563 54.104,216.358 51.641 C 215.796 50.494,213.707 49.625,212.583 50.071 M260.179 50.295 C 258.826 50.527,257.340 52.724,257.578 54.137 C 257.971 56.464,260.636 57.276,262.231 55.556 C 264.324 53.300,262.965 49.816,260.179 50.295 M226.730 51.088 C 225.278 51.725,224.709 53.744,225.631 54.989 C 227.636 57.697,232.247 55.376,230.986 52.294 C 230.431 50.936,228.394 50.359,226.730 51.088 M158.556 53.333 C 156.472 54.173,156.378 58.242,158.422 59.096 C 160.492 59.961,162.234 58.713,162.244 56.358 C 162.255 53.962,160.521 52.541,158.556 53.333 M166.417 53.475 C 163.967 54.977,163.518 57.601,165.503 58.812 C 167.907 60.277,171.367 56.968,169.991 54.520 C 169.272 53.239,167.598 52.750,166.417 53.475 M239.083 53.733 C 236.911 54.274,235.978 55.785,236.729 57.547 C 237.168 58.578,238.498 59.287,239.546 59.049 C 240.836 58.756,241.207 58.611,241.673 58.219 C 243.875 56.366,241.943 53.020,239.083 53.733 M200.794 54.831 C 198.643 56.009,199.354 59.194,201.877 59.682 C 205.328 60.350,207.555 58.267,206.030 55.798 C 205.307 54.629,202.208 54.057,200.794 54.831 M220.338 58.628 C 216.652 59.712,217.744 64.486,221.521 63.799 C 224.188 63.314,225.415 61.388,224.225 59.552 C 223.452 58.360,222.234 58.071,220.338 58.628 M151.833 59.208 C 149.538 59.801,149.150 63.686,151.231 65.240 C 151.876 65.722,153.457 65.722,154.102 65.240 C 155.997 63.826,155.472 59.677,153.344 59.235 C 152.505 59.061,152.410 59.059,151.833 59.208 M254.124 60.236 C 251.923 61.028,250.521 63.503,251.450 64.955 C 252.717 66.934,254.644 66.780,256.804 64.527 C 258.645 62.607,256.606 59.343,254.124 60.236 M166.216 62.775 C 165.330 62.967,163.447 65.932,163.446 67.137 C 163.443 69.512,166.100 70.721,167.853 69.142 C 170.961 66.344,169.841 61.987,166.216 62.775 M157.744 66.511 C 156.386 66.905,155.224 69.833,155.816 71.364 C 156.562 73.292,159.448 73.619,160.513 71.896 C 162.301 69.003,160.593 65.682,157.744 66.511 M150.868 71.611 C 149.964 72.057,149.667 72.562,149.217 74.416 C 148.567 77.097,150.695 79.108,152.949 77.943 C 153.912 77.445,154.667 75.693,154.667 73.953 C 154.667 72.091,152.547 70.784,150.868 71.611 M159.652 74.547 C 157.388 75.946,156.723 77.725,157.856 79.354 C 159.405 81.582,163.903 79.352,163.628 76.493 C 163.445 74.584,161.295 73.532,159.652 74.547 M149.833 80.898 C 147.123 82.106,146.700 85.717,149.170 86.562 C 151.851 87.480,154.562 84.204,153.050 81.873 C 152.405 80.878,150.901 80.422,149.833 80.898 M59.500 202.065 C 59.500 202.707,59.208 202.530,63.958 204.759 L 65.667 205.560 65.667 224.262 L 65.667 242.964 64.292 243.630 C 63.535 243.996,62.148 244.660,61.208 245.106 L 59.500 245.916 59.500 246.541 L 59.500 247.167 73.000 247.167 L 86.500 247.167 86.500 246.533 C 86.500 245.915,86.477 245.891,85.542 245.540 C 85.015 245.342,83.571 244.797,82.333 244.330 C 81.096 243.862,79.821 243.382,79.500 243.264 L 78.917 243.050 78.873 234.875 L 78.830 226.701 84.207 226.620 C 91.765 226.507,94.875 225.891,98.763 223.738 C 106.786 219.295,107.776 209.733,100.749 204.540 C 99.990 203.979,97.599 202.930,96.280 202.579 C 92.485 201.568,93.483 201.619,75.792 201.550 L 59.500 201.486 59.500 202.065 M83.469 205.590 C 89.230 206.348,92.033 209.147,92.057 214.167 C 92.083 219.739,88.044 223.092,80.877 223.448 L 78.833 223.550 78.833 214.416 L 78.833 205.283 80.875 205.400 C 81.998 205.465,83.165 205.550,83.469 205.590 M229.333 207.683 C 227.860 207.802,225.518 208.178,223.846 208.565 C 222.971 208.768,221.200 209.406,220.262 209.858 C 219.719 210.119,219.208 210.333,219.128 210.333 C 218.924 210.333,215.526 212.480,214.917 212.993 C 202.972 223.072,205.952 240.852,220.500 246.305 C 227.419 248.899,237.936 247.916,243.868 244.122 C 245.670 242.969,245.500 243.598,245.500 238.069 L 245.500 233.211 246.490 232.564 C 247.034 232.208,248.082 231.542,248.819 231.083 C 250.045 230.321,250.159 230.204,250.163 229.708 L 250.167 229.167 238.750 229.167 L 227.333 229.167 227.335 229.708 C 227.338 230.283,228.017 230.766,230.913 232.257 C 231.465 232.541,232.085 232.880,232.292 233.010 L 232.667 233.247 232.667 238.623 L 232.667 244.000 231.368 244.000 C 225.070 244.000,221.350 238.803,221.048 229.583 C 220.605 216.095,226.889 209.133,237.000 211.908 C 237.594 212.071,239.000 212.850,239.000 213.016 C 239.000 213.116,239.459 213.847,240.021 214.641 C 240.582 215.434,241.201 216.308,241.395 216.583 C 241.590 216.858,242.211 217.770,242.775 218.610 C 244.523 221.211,244.481 221.167,245.222 221.167 L 245.882 221.167 245.768 219.292 C 245.706 218.260,245.624 217.192,245.586 216.917 C 245.549 216.642,245.436 215.217,245.335 213.750 C 245.085 210.100,245.282 210.491,243.295 209.703 C 238.772 207.911,234.384 207.276,229.333 207.683 M126.154 208.458 C 126.059 208.710,125.799 209.288,125.574 209.741 C 125.350 210.194,125.167 210.620,125.167 210.688 C 125.167 210.755,124.951 211.284,124.687 211.863 C 124.423 212.443,124.000 213.404,123.746 214.000 C 123.492 214.596,122.888 215.983,122.405 217.083 C 121.921 218.183,121.366 219.496,121.172 220.000 C 120.977 220.504,120.718 221.142,120.594 221.417 C 118.783 225.466,117.000 229.588,117.000 229.727 C 117.000 229.778,116.619 230.666,116.154 231.701 C 115.688 232.736,115.244 233.733,115.167 233.917 C 115.090 234.100,114.637 235.150,114.161 236.250 C 113.685 237.350,113.196 238.520,113.074 238.851 C 112.877 239.384,112.268 240.778,111.589 242.250 C 111.462 242.525,111.241 243.022,111.097 243.355 C 110.921 243.765,110.634 244.056,110.210 244.255 C 109.865 244.417,109.283 244.746,108.917 244.988 C 108.550 245.229,108.044 245.531,107.792 245.658 C 107.412 245.850,107.333 245.999,107.333 246.528 L 107.333 247.167 113.833 247.167 L 120.333 247.167 120.332 246.542 C 120.330 245.981,120.265 245.888,119.707 245.637 C 118.467 245.081,115.748 243.793,115.679 243.728 C 115.612 243.667,115.981 242.686,116.674 241.083 C 116.832 240.717,117.351 239.479,117.827 238.333 C 118.303 237.188,118.755 236.100,118.831 235.917 C 118.907 235.733,119.012 235.452,119.063 235.292 C 119.150 235.020,119.628 235.000,125.984 235.000 L 132.811 235.000 132.916 235.375 C 132.974 235.581,133.085 235.900,133.164 236.083 C 133.310 236.422,134.892 240.239,135.202 241.000 C 135.296 241.229,135.438 241.547,135.519 241.705 C 135.900 242.455,136.316 243.749,136.206 243.845 C 136.138 243.904,135.521 244.183,134.833 244.466 C 131.561 245.810,131.308 245.961,131.365 246.548 L 131.417 247.083 142.542 247.126 L 153.667 247.169 153.667 246.610 C 153.667 245.933,153.603 245.876,151.146 244.341 L 149.209 243.131 147.669 239.524 C 146.822 237.540,145.830 235.244,145.464 234.421 C 145.099 233.598,144.777 232.811,144.749 232.671 C 144.721 232.531,144.289 231.516,143.789 230.414 C 143.289 229.313,142.822 228.226,142.750 227.999 C 142.678 227.772,142.414 227.136,142.163 226.585 C 141.912 226.034,141.516 225.133,141.282 224.583 C 141.048 224.033,140.543 222.871,140.161 222.000 C 139.778 221.129,139.206 219.779,138.888 219.000 C 138.571 218.221,138.060 217.021,137.753 216.333 C 136.902 214.425,136.621 213.766,136.579 213.580 C 136.558 213.486,136.201 212.661,135.787 211.746 C 135.372 210.832,134.979 209.896,134.912 209.667 C 134.845 209.438,134.649 208.969,134.475 208.625 L 134.160 208.000 130.242 208.000 L 126.325 208.000 126.154 208.458 M312.920 208.601 C 312.781 208.934,312.667 209.239,312.667 209.277 C 312.667 209.315,312.394 209.962,312.062 210.715 C 311.729 211.467,311.361 212.308,311.244 212.583 C 311.127 212.858,310.575 214.119,310.016 215.385 C 309.457 216.652,309.000 217.746,309.000 217.818 C 309.000 217.890,308.895 218.167,308.767 218.433 C 308.494 218.998,307.701 220.768,307.504 221.250 C 307.190 222.017,305.894 225.028,305.480 225.949 C 305.308 226.334,305.167 226.686,305.167 226.731 C 305.167 226.776,304.867 227.460,304.500 228.250 C 304.133 229.040,303.833 229.717,303.833 229.755 C 303.833 229.793,303.646 230.233,303.417 230.734 C 303.188 231.235,303.000 231.692,303.000 231.750 C 303.000 231.808,302.804 232.281,302.564 232.802 C 302.324 233.324,301.581 235.029,300.914 236.592 C 300.246 238.155,299.552 239.767,299.372 240.175 C 299.191 240.583,298.764 241.554,298.423 242.333 C 297.691 244.002,297.722 243.967,296.333 244.705 C 294.166 245.858,294.169 245.855,294.168 246.542 L 294.167 247.167 300.667 247.167 L 307.167 247.167 307.167 246.524 C 307.167 245.831,306.910 245.669,303.514 244.219 C 303.018 244.007,302.584 243.806,302.549 243.771 C 302.457 243.679,302.893 242.544,304.126 239.667 C 304.499 238.796,305.092 237.391,305.444 236.544 L 306.083 235.005 312.842 235.003 L 319.601 235.000 320.409 236.958 C 320.854 238.035,321.610 239.854,322.090 241.000 C 323.299 243.885,323.280 243.793,322.719 244.022 C 321.778 244.406,321.231 244.639,320.333 245.038 C 319.829 245.263,319.173 245.552,318.875 245.680 C 318.402 245.885,318.333 245.994,318.333 246.541 L 318.333 247.167 329.417 247.167 L 340.500 247.167 340.498 246.542 C 340.496 245.865,339.122 244.799,336.550 243.476 C 336.315 243.355,335.931 242.709,335.487 241.685 C 335.104 240.804,334.624 239.708,334.420 239.250 C 334.216 238.792,333.770 237.742,333.427 236.917 C 333.085 236.092,332.587 234.910,332.319 234.292 C 331.256 231.831,330.823 230.820,329.841 228.500 C 329.277 227.171,328.716 225.858,328.593 225.583 C 328.469 225.308,328.211 224.727,328.018 224.292 C 327.825 223.856,327.524 223.181,327.351 222.792 C 327.177 222.402,326.792 221.483,326.496 220.750 C 326.199 220.017,325.742 218.946,325.478 218.371 C 325.215 217.796,325.000 217.285,325.000 217.235 C 325.000 217.186,324.826 216.756,324.614 216.281 C 324.067 215.058,323.300 213.293,322.102 210.500 L 321.066 208.083 317.120 208.039 L 313.174 207.994 312.920 208.601 M156.335 208.958 C 156.337 209.518,156.402 209.612,156.960 209.863 C 157.303 210.018,158.465 210.535,159.542 211.013 L 161.500 211.882 161.500 227.734 L 161.500 243.585 161.042 243.784 C 160.790 243.894,160.382 244.059,160.135 244.151 C 159.742 244.297,159.089 244.591,156.875 245.620 C 156.400 245.840,156.333 245.951,156.333 246.519 L 156.333 247.167 164.833 247.167 L 173.333 247.167 173.333 246.520 C 173.333 245.970,173.265 245.847,172.875 245.693 C 172.077 245.378,168.800 244.341,167.458 243.979 L 166.167 243.630 166.171 232.357 L 166.174 221.083 168.179 223.167 C 171.922 227.057,177.079 232.392,178.167 233.500 C 178.762 234.107,180.112 235.501,181.167 236.598 C 182.221 237.695,184.828 240.399,186.960 242.607 C 189.093 244.815,191.022 246.821,191.247 247.065 L 191.658 247.507 194.787 247.462 L 197.917 247.417 197.959 229.643 L 198.002 211.869 198.792 211.491 C 199.227 211.283,200.333 210.794,201.250 210.405 L 202.917 209.696 202.968 209.015 L 203.019 208.333 194.593 208.333 L 186.167 208.333 186.167 208.958 L 186.168 209.583 187.459 209.986 C 188.169 210.208,189.781 210.721,191.042 211.127 L 193.333 211.864 193.333 221.875 L 193.333 231.886 191.625 230.123 C 189.228 227.650,187.195 225.531,183.917 222.086 C 182.358 220.449,180.596 218.607,180.000 217.993 C 178.990 216.951,175.376 213.167,172.167 209.792 L 170.780 208.333 163.557 208.333 L 156.333 208.333 156.335 208.958 M253.167 209.000 C 253.167 209.388,253.246 209.667,253.357 209.667 C 253.461 209.667,253.855 209.814,254.232 209.993 C 254.608 210.173,255.704 210.648,256.667 211.051 L 258.417 211.782 258.459 227.693 L 258.502 243.605 257.542 244.037 C 257.015 244.275,256.096 244.690,255.500 244.960 C 254.904 245.230,254.135 245.552,253.792 245.675 C 253.219 245.882,253.167 245.953,253.167 246.533 L 253.167 247.167 272.042 247.167 L 290.917 247.167 290.871 240.417 L 290.826 233.667 290.163 233.667 C 289.798 233.667,289.500 233.725,289.500 233.797 C 289.500 233.869,289.029 234.712,288.454 235.672 C 287.878 236.632,287.276 237.679,287.116 238.000 C 286.804 238.624,286.598 238.975,286.108 239.716 C 285.792 240.194,284.880 241.820,284.382 242.792 L 284.105 243.333 277.719 243.333 L 271.333 243.333 271.333 236.000 L 271.333 228.667 275.333 228.667 C 277.533 228.667,279.333 228.728,279.333 228.802 C 279.333 228.876,279.467 229.083,279.630 229.260 C 279.794 229.438,280.445 230.258,281.077 231.083 C 283.237 233.900,283.171 233.833,283.778 233.833 L 284.333 233.833 284.333 227.083 L 284.333 220.333 283.780 220.333 C 283.192 220.333,283.134 220.384,281.872 222.004 C 281.481 222.506,280.751 223.442,280.249 224.083 C 279.748 224.725,279.337 225.306,279.335 225.375 C 279.334 225.444,277.533 225.500,275.333 225.500 L 271.333 225.500 271.333 218.750 L 271.333 212.000 277.042 212.005 L 282.750 212.011 283.542 213.130 C 283.978 213.746,284.653 214.679,285.042 215.204 C 285.432 215.729,286.236 216.835,286.830 217.662 C 287.862 219.100,287.938 219.167,288.539 219.167 L 289.167 219.167 289.167 213.750 L 289.167 208.333 271.167 208.333 L 253.167 208.333 253.167 209.000 M314.110 222.000 C 314.697 223.421,315.279 224.808,315.403 225.083 C 315.649 225.629,316.963 228.713,317.178 229.250 C 317.252 229.433,317.467 229.949,317.656 230.396 C 317.845 230.843,318.000 231.237,318.000 231.271 C 318.000 231.305,315.675 231.333,312.833 231.333 C 309.992 231.333,307.667 231.295,307.667 231.248 C 307.667 231.201,307.811 230.845,307.988 230.457 C 308.164 230.068,308.919 228.287,309.666 226.500 C 312.461 219.809,312.880 218.883,312.972 219.187 C 313.010 219.313,313.522 220.579,314.110 222.000 M126.646 220.543 C 126.955 221.299,127.675 223.004,128.246 224.333 C 128.817 225.662,129.571 227.463,129.922 228.333 C 130.272 229.204,130.624 230.003,130.703 230.109 C 130.782 230.215,130.914 230.533,130.995 230.817 L 131.143 231.333 125.988 231.333 C 123.153 231.333,120.833 231.271,120.833 231.195 C 120.833 231.118,121.236 230.125,121.729 228.986 C 122.636 226.890,122.875 226.317,122.904 226.167 C 122.942 225.972,123.442 224.811,124.113 223.360 C 124.509 222.503,124.833 221.744,124.833 221.673 C 124.833 221.445,125.879 219.167,125.983 219.168 C 126.038 219.169,126.336 219.788,126.646 220.543 M230.500 292.417 L 230.500 302.833 231.333 302.833 L 232.167 302.833 232.167 297.815 L 232.167 292.797 232.697 291.802 C 233.779 289.771,235.825 288.896,237.866 289.592 C 239.688 290.213,239.833 290.798,239.833 297.515 L 239.833 302.851 240.708 302.800 L 241.583 302.750 241.574 297.167 C 241.565 291.076,241.479 290.456,240.471 289.174 C 238.977 287.274,235.122 287.402,233.015 289.422 L 232.250 290.155 232.205 286.078 L 232.161 282.000 231.330 282.000 L 230.500 282.000 230.500 292.417 M300.500 292.417 L 300.500 302.833 301.333 302.833 L 302.167 302.833 302.167 301.898 L 302.167 300.962 302.792 301.569 C 304.770 303.492,308.368 303.537,310.285 301.664 C 313.234 298.780,313.012 291.293,309.904 288.823 C 307.988 287.301,304.280 287.591,302.745 289.384 L 302.167 290.060 302.167 286.030 L 302.167 282.000 301.333 282.000 L 300.500 282.000 300.500 292.417 M355.000 285.969 L 355.000 289.939 354.177 289.145 C 353.175 288.180,352.402 287.922,350.500 287.919 C 346.389 287.912,344.245 291.699,345.028 297.583 C 345.685 302.523,351.026 304.792,354.432 301.580 L 355.000 301.044 355.019 301.647 C 355.030 301.979,355.025 302.381,355.009 302.542 C 354.984 302.787,355.121 302.833,355.865 302.833 L 356.750 302.833 356.706 292.417 L 356.662 282.000 355.831 282.000 L 355.000 282.000 355.000 285.969 M6.500 282.822 C 1.847 283.576,0.083 286.350,0.083 292.917 C 0.083 297.536,0.538 299.144,2.371 301.006 C 6.447 305.147,13.811 302.827,14.605 297.150 L 14.696 296.500 13.765 296.500 C 12.910 296.500,12.833 296.531,12.832 296.875 C 12.807 302.030,5.088 303.265,2.676 298.500 C 1.347 295.874,1.355 290.026,2.691 287.417 C 5.103 282.705,12.081 283.513,12.776 288.584 L 12.879 289.333 13.795 289.333 L 14.712 289.333 14.610 288.625 C 14.043 284.706,10.504 282.173,6.500 282.822 M139.503 282.881 C 138.425 283.426,138.756 284.875,139.978 284.967 C 140.541 285.010,140.691 284.951,140.926 284.593 C 141.629 283.520,140.626 282.313,139.503 282.881 M212.750 282.799 C 211.966 282.965,211.615 283.892,212.072 284.590 C 212.411 285.107,213.463 285.168,213.891 284.695 C 214.632 283.876,213.845 282.567,212.750 282.799 M129.167 286.250 L 129.167 288.167 127.833 288.167 L 126.500 288.167 126.500 288.833 L 126.500 289.500 127.833 289.500 L 129.167 289.500 129.180 294.625 C 129.197 300.847,129.239 301.201,130.069 302.146 C 130.987 303.193,134.440 303.412,134.254 302.413 C 134.220 302.231,134.186 301.926,134.179 301.733 C 134.168 301.414,134.092 301.389,133.335 301.462 C 131.101 301.677,131.000 301.387,131.000 294.755 L 131.000 289.500 132.500 289.500 L 134.000 289.500 134.000 288.792 L 134.001 288.083 132.500 288.137 L 131.000 288.190 131.000 286.262 L 131.000 284.333 130.083 284.333 L 129.167 284.333 129.167 286.250 M220.833 286.262 L 220.833 288.191 219.416 288.137 L 217.999 288.083 218.000 288.792 L 218.000 289.500 219.410 289.500 L 220.821 289.500 220.879 295.208 C 220.941 301.267,220.936 301.207,221.390 301.900 C 221.929 302.722,222.608 302.999,224.083 302.997 C 225.722 302.994,225.837 302.930,225.723 302.080 L 225.634 301.417 224.809 301.475 C 222.630 301.629,222.594 301.526,222.531 294.958 L 222.479 289.500 223.990 289.500 L 225.500 289.500 225.500 288.792 L 225.501 288.083 224.000 288.137 L 222.500 288.190 222.500 286.262 L 222.500 284.333 221.667 284.333 L 220.833 284.333 220.833 286.262 M282.333 286.263 L 282.333 288.192 281.000 288.138 L 279.666 288.083 279.666 288.792 L 279.667 289.500 280.992 289.500 L 282.317 289.500 282.367 295.125 C 282.432 302.462,282.655 303.000,285.634 303.000 C 287.228 303.000,287.333 302.943,287.333 302.081 L 287.333 301.365 286.677 301.453 C 284.254 301.778,284.168 301.552,284.167 294.875 L 284.167 289.500 285.583 289.500 L 287.000 289.500 287.000 288.833 L 287.000 288.167 285.583 288.167 L 284.167 288.167 284.167 286.250 L 284.167 284.333 283.250 284.333 L 282.333 284.333 282.333 286.263 M23.838 288.005 C 18.886 289.045,17.319 297.485,21.333 301.500 C 23.334 303.501,27.713 303.463,29.969 301.425 C 33.685 298.067,32.551 289.839,28.151 288.236 C 27.271 287.916,24.876 287.787,23.838 288.005 M41.960 288.003 C 41.092 288.222,40.158 288.846,39.441 289.683 L 38.833 290.393 38.833 289.238 L 38.834 288.083 38.000 288.141 L 37.167 288.199 37.167 295.516 L 37.167 302.833 38.000 302.833 L 38.833 302.833 38.833 297.775 C 38.833 292.731,38.835 292.714,39.240 291.951 C 40.547 289.494,43.364 288.623,45.394 290.048 C 46.434 290.778,46.492 291.160,46.496 297.300 L 46.500 302.851 47.375 302.800 L 48.250 302.750 48.250 297.250 C 48.250 291.198,48.163 290.534,47.213 289.296 C 46.307 288.116,43.878 287.518,41.960 288.003 M56.968 288.068 C 53.338 289.117,52.632 293.351,55.811 295.008 C 56.469 295.351,56.938 295.500,59.471 296.170 C 62.101 296.866,63.255 298.167,62.610 299.711 C 61.429 302.540,55.661 302.014,55.063 299.023 C 54.897 298.192,53.331 298.209,53.337 299.042 C 53.372 304.160,63.972 304.407,64.465 299.301 C 64.705 296.814,63.371 295.611,59.112 294.472 C 56.448 293.759,55.502 293.042,55.501 291.733 C 55.497 288.652,62.114 288.610,62.606 291.688 L 62.709 292.333 63.605 292.333 C 64.609 292.333,64.640 292.280,64.304 291.103 C 63.939 289.822,62.420 288.333,61.220 288.078 C 60.161 287.852,57.733 287.847,56.968 288.068 M73.620 288.004 C 69.011 289.170,67.193 296.741,70.548 300.797 C 72.905 303.647,78.224 303.746,80.266 300.978 C 80.775 300.289,80.777 300.302,80.078 299.925 C 79.496 299.612,79.486 299.612,79.257 299.939 C 76.776 303.482,70.680 300.952,70.668 296.375 L 70.667 295.667 75.842 295.667 L 81.017 295.667 80.987 294.292 C 80.888 289.779,77.622 286.992,73.620 288.004 M89.792 288.114 C 89.265 288.292,88.749 288.651,88.250 289.184 L 87.500 289.986 87.500 289.035 L 87.500 288.083 86.584 288.140 L 85.667 288.198 85.667 295.524 L 85.667 302.851 86.542 302.800 L 87.417 302.750 87.500 297.411 L 87.583 292.072 88.170 291.244 C 88.941 290.157,90.012 289.613,91.550 289.526 L 92.683 289.461 92.633 288.689 L 92.583 287.917 91.583 287.882 C 91.012 287.862,90.244 287.961,89.792 288.114 M115.000 288.130 C 112.884 288.796,111.333 290.445,111.333 292.030 C 111.333 292.521,113.129 292.148,113.231 291.636 C 113.620 289.693,117.309 288.626,119.288 289.885 C 120.287 290.520,120.667 291.348,120.667 292.893 L 120.667 294.132 118.042 294.203 C 113.015 294.339,111.022 295.825,111.112 299.372 C 111.207 303.103,117.719 304.371,120.454 301.191 L 120.833 300.750 120.833 301.271 C 120.834 302.649,120.961 302.833,121.910 302.833 C 122.985 302.833,123.028 302.789,122.747 301.993 C 122.578 301.513,122.516 300.173,122.505 296.743 C 122.486 290.765,122.165 289.592,120.245 288.475 C 119.188 287.860,116.434 287.679,115.000 288.130 M151.000 287.935 C 147.480 288.597,145.322 292.924,146.182 297.594 C 147.356 303.965,155.579 305.095,158.409 299.275 C 159.471 297.090,159.203 292.361,157.922 290.692 C 156.145 288.377,153.742 287.420,151.000 287.935 M169.323 287.894 C 169.272 287.948,169.084 288.017,168.907 288.046 C 168.066 288.187,166.942 288.958,166.208 289.898 C 165.933 290.251,165.828 290.306,165.813 290.106 C 165.801 289.956,165.773 289.758,165.750 289.667 C 165.727 289.575,165.699 289.200,165.688 288.833 L 165.667 288.167 164.833 288.167 L 164.000 288.167 164.000 295.500 L 164.000 302.833 164.917 302.833 L 165.833 302.833 165.833 297.734 C 165.833 292.072,165.831 292.087,166.977 290.810 C 168.683 288.910,171.936 288.930,172.987 290.847 C 173.387 291.576,173.391 291.637,173.464 297.208 L 173.538 302.833 174.367 302.833 L 175.196 302.833 175.137 296.875 C 175.069 289.847,174.946 289.367,172.942 288.323 C 172.291 287.983,169.546 287.658,169.323 287.894 M251.830 287.887 C 251.783 287.937,251.558 288.007,251.330 288.042 C 245.540 288.933,244.680 299.883,250.200 302.432 C 252.493 303.490,255.647 303.032,257.392 301.386 C 260.830 298.142,260.096 290.314,256.191 288.586 C 255.857 288.438,255.435 288.234,255.254 288.133 C 254.908 287.941,251.980 287.730,251.830 287.887 M321.750 287.939 C 315.672 289.559,314.660 299.596,320.296 302.368 C 323.936 304.159,328.010 302.417,329.343 298.500 C 330.079 296.335,329.625 291.181,328.669 290.862 C 328.576 290.831,328.500 290.715,328.500 290.605 C 328.500 289.143,323.961 287.349,321.750 287.939 M338.917 288.079 C 338.270 288.252,337.906 288.495,337.292 289.163 L 336.500 290.023 336.500 289.053 L 336.500 288.083 335.608 288.139 L 334.716 288.195 334.715 295.514 L 334.714 302.833 335.607 302.833 L 336.500 302.833 336.513 297.708 C 336.527 291.884,336.501 292.183,337.064 291.332 C 337.901 290.068,339.195 289.428,340.714 289.527 L 341.583 289.583 341.636 288.850 C 341.712 287.781,340.894 287.549,338.917 288.079 M366.500 287.979 C 361.663 289.042,359.924 297.478,363.765 301.248 C 366.160 303.599,370.327 303.620,372.742 301.292 L 373.573 300.490 373.094 300.079 C 372.493 299.562,372.541 299.556,371.773 300.240 C 370.668 301.223,370.103 301.417,368.333 301.417 C 365.566 301.417,363.857 299.692,363.420 296.458 L 363.313 295.667 368.598 295.667 L 373.882 295.667 373.789 294.107 C 373.524 289.654,370.489 287.102,366.500 287.979 M382.643 288.095 C 381.866 288.334,381.155 288.889,380.632 289.667 C 380.353 290.080,380.351 290.076,380.342 289.083 L 380.333 288.083 379.458 288.083 L 378.583 288.083 378.583 295.458 L 378.583 302.833 379.458 302.833 L 380.333 302.833 380.333 297.665 C 380.333 292.744,380.350 292.460,380.687 291.744 C 381.386 290.257,382.964 289.374,384.636 289.535 L 385.441 289.612 385.479 288.863 C 385.535 287.782,384.538 287.511,382.643 288.095 M393.333 287.884 C 393.287 287.930,392.956 288.014,392.597 288.071 C 390.298 288.433,388.685 291.166,389.563 293.214 C 390.000 294.231,391.717 295.422,393.204 295.740 C 395.244 296.175,395.899 296.360,396.524 296.676 C 399.742 298.305,398.404 301.500,394.504 301.500 C 392.366 301.500,390.964 300.629,390.729 299.154 L 390.624 298.500 389.710 298.500 L 388.795 298.500 388.912 299.292 C 389.537 303.525,397.946 304.512,399.696 300.557 C 400.990 297.631,399.247 295.599,394.417 294.401 C 394.142 294.333,393.879 294.268,393.833 294.256 C 391.569 293.694,390.627 292.475,391.293 290.970 C 392.388 288.494,397.678 289.013,398.098 291.639 L 398.209 292.333 399.127 292.333 L 400.045 292.333 399.937 291.542 C 399.724 289.972,398.244 288.463,396.500 288.036 C 396.044 287.924,393.418 287.798,393.333 287.884 M105.901 288.250 C 105.416 289.689,104.584 292.052,104.171 293.167 C 103.623 294.645,102.568 297.615,102.336 298.333 C 102.262 298.563,102.058 299.081,101.883 299.485 L 101.564 300.220 100.935 298.402 C 100.588 297.402,99.983 295.721,99.589 294.667 C 99.195 293.612,98.501 291.737,98.045 290.500 L 97.217 288.250 96.359 288.200 C 95.376 288.142,95.385 288.120,95.847 289.336 C 96.038 289.839,96.416 290.850,96.686 291.583 C 96.957 292.317,97.225 293.029,97.281 293.167 C 97.337 293.304,97.405 293.492,97.432 293.583 C 97.458 293.675,97.754 294.462,98.089 295.333 C 98.424 296.204,98.908 297.479,99.165 298.167 C 99.421 298.854,99.919 300.189,100.272 301.133 L 100.912 302.848 101.647 302.799 C 102.375 302.750,102.384 302.742,102.704 301.833 C 102.882 301.329,103.280 300.242,103.588 299.417 C 103.897 298.592,104.605 296.679,105.161 295.167 C 105.717 293.654,106.239 292.267,106.321 292.083 C 106.403 291.900,106.522 291.600,106.585 291.417 C 106.648 291.233,106.947 290.408,107.248 289.583 L 107.797 288.083 106.877 288.083 C 106.371 288.083,105.932 288.158,105.901 288.250 M188.167 288.109 C 188.167 288.251,189.772 293.881,190.250 295.417 C 190.593 296.517,190.927 297.679,190.991 298.000 C 191.056 298.321,191.397 299.543,191.748 300.716 L 192.388 302.849 193.124 302.800 L 193.860 302.750 194.446 300.917 C 194.768 299.908,195.295 298.296,195.616 297.333 C 195.937 296.371,196.223 295.471,196.252 295.333 C 196.365 294.800,197.544 291.244,197.645 291.132 C 197.704 291.068,198.041 291.930,198.395 293.049 C 198.749 294.168,199.487 296.471,200.036 298.167 C 200.586 299.862,201.118 301.512,201.219 301.833 C 201.653 303.209,202.816 303.330,203.224 302.042 C 203.966 299.696,204.823 296.819,204.907 296.388 C 204.940 296.221,205.167 295.408,205.412 294.583 C 205.657 293.758,205.998 292.593,206.170 291.993 C 206.342 291.393,206.563 290.689,206.662 290.428 C 206.761 290.168,206.884 289.690,206.936 289.366 C 206.987 289.042,207.089 288.621,207.161 288.431 C 207.285 288.105,207.237 288.083,206.391 288.083 C 205.501 288.083,205.486 288.091,205.330 288.667 C 204.881 290.324,203.459 295.617,203.406 295.833 C 202.255 300.458,202.218 300.574,202.096 299.902 C 202.032 299.544,201.726 298.462,201.417 297.500 C 199.828 292.546,198.968 289.820,198.935 289.629 C 198.728 288.426,198.489 288.148,197.702 288.200 L 196.936 288.250 195.957 291.333 C 195.419 293.029,194.608 295.579,194.154 297.000 C 193.700 298.421,193.329 299.719,193.331 299.885 C 193.332 300.051,193.258 300.140,193.167 300.083 C 193.075 300.027,193.000 299.813,193.000 299.608 C 193.000 299.403,192.473 297.326,191.830 294.992 C 191.186 292.659,190.496 290.150,190.296 289.417 L 189.933 288.083 189.050 288.083 C 188.564 288.083,188.167 288.095,188.167 288.109 M212.167 295.458 L 212.167 302.833 213.000 302.833 L 213.833 302.833 213.833 295.516 L 213.833 288.199 213.000 288.141 L 212.166 288.083 212.167 295.458 M264.539 293.750 C 264.601 299.790,264.694 300.506,265.528 301.402 C 265.696 301.582,265.833 301.778,265.833 301.838 C 265.833 301.897,266.265 302.164,266.792 302.431 C 268.780 303.439,271.677 303.129,273.305 301.736 L 274.000 301.141 274.000 301.987 L 274.000 302.833 274.833 302.833 L 275.667 302.833 275.667 295.458 L 275.667 288.083 274.752 288.140 L 273.837 288.197 273.838 293.597 L 273.839 298.997 273.429 299.647 C 272.104 301.746,268.415 302.205,267.095 300.435 C 266.277 299.339,266.186 298.580,266.175 292.724 L 266.167 288.199 265.324 288.141 L 264.480 288.083 264.539 293.750 M139.128 295.500 L 139.083 302.833 139.958 302.833 L 140.833 302.833 140.833 295.500 L 140.833 288.167 140.003 288.167 L 139.173 288.167 139.128 295.500 M27.419 289.688 C 28.202 290.069,29.167 290.800,29.167 291.012 C 29.167 291.101,29.351 291.453,29.577 291.795 C 31.500 294.708,30.311 299.903,27.431 301.178 C 23.955 302.715,20.917 300.067,20.917 295.500 C 20.917 290.881,24.072 288.060,27.419 289.688 M76.344 289.500 C 77.607 289.851,78.847 291.328,79.079 292.758 C 79.138 293.120,79.216 293.567,79.252 293.750 C 79.318 294.077,79.242 294.082,75.003 294.036 C 70.180 293.984,70.608 294.122,70.980 292.739 C 71.365 291.312,72.881 289.666,74.006 289.456 C 74.759 289.315,75.744 289.333,76.344 289.500 M154.720 289.904 C 158.420 292.091,158.195 299.467,154.376 301.195 C 150.618 302.895,147.091 299.138,147.816 294.208 C 148.398 290.258,151.766 288.158,154.720 289.904 M255.091 289.854 C 258.906 291.757,258.758 299.252,254.867 301.182 C 250.844 303.178,246.848 297.949,248.594 292.973 C 248.712 292.638,248.764 292.319,248.710 292.265 C 248.655 292.211,248.699 292.167,248.806 292.167 C 248.912 292.167,249.000 292.065,249.000 291.940 C 249.000 291.601,250.296 290.194,250.893 289.886 C 252.194 289.213,253.781 289.201,255.091 289.854 M308.315 289.824 C 310.984 291.185,311.478 297.952,309.085 300.351 C 307.173 302.266,303.979 301.771,302.518 299.333 C 301.922 298.339,301.989 292.706,302.612 291.507 C 303.602 289.598,306.307 288.800,308.315 289.824 M325.168 289.798 C 329.025 291.562,328.975 299.283,325.095 301.161 C 323.137 302.109,319.175 300.729,319.166 299.095 C 319.165 298.997,319.052 298.701,318.915 298.437 C 318.255 297.172,318.260 294.226,318.926 292.479 C 319.952 289.786,322.629 288.636,325.168 289.798 M352.833 289.826 C 353.543 290.187,354.337 290.964,354.786 291.735 C 355.102 292.280,355.077 298.701,354.756 299.323 C 352.810 303.086,347.403 301.803,346.758 297.424 C 345.907 291.649,348.947 287.846,352.833 289.826 M369.922 289.872 C 371.093 290.618,371.779 291.742,371.951 293.196 L 372.046 294.000 367.773 294.000 C 362.902 294.000,363.217 294.123,363.891 292.485 C 365.035 289.704,367.788 288.511,369.922 289.872 M120.667 297.092 C 120.667 298.993,120.498 299.397,119.315 300.332 C 117.105 302.079,113.570 301.728,113.008 299.705 C 112.229 296.902,114.149 295.589,119.125 295.521 L 120.667 295.500 120.667 297.092 " stroke="none" fill="#8c8c8c" fill-rule="evenodd"></path><path id="path1" d="M188.044 44.786 C 188.297 44.825,188.672 44.824,188.877 44.784 C 189.082 44.744,188.875 44.713,188.417 44.714 C 187.958 44.716,187.791 44.748,188.044 44.786 M274.114 212.125 C 275.690 212.152,278.315 212.152,279.948 212.125 C 281.581 212.097,280.292 212.075,277.083 212.075 C 273.875 212.075,272.539 212.097,274.114 212.125 M290.909 240.333 C 290.909 244.046,290.931 245.565,290.958 243.708 C 290.985 241.852,290.985 238.815,290.958 236.958 C 290.931 235.102,290.909 236.621,290.909 240.333 M356.745 292.333 C 356.745 298.063,356.766 300.406,356.792 297.542 C 356.817 294.677,356.817 289.990,356.792 287.125 C 356.766 284.260,356.745 286.604,356.745 292.333 M37.544 288.120 C 37.797 288.158,38.172 288.157,38.377 288.117 C 38.582 288.078,38.375 288.046,37.917 288.048 C 37.458 288.049,37.291 288.081,37.544 288.120 M86.211 288.120 C 86.464 288.158,86.839 288.157,87.044 288.117 C 87.249 288.078,87.042 288.046,86.583 288.048 C 86.125 288.049,85.957 288.081,86.211 288.120 M95.442 288.125 C 95.400 288.194,95.801 288.250,96.333 288.250 C 96.866 288.250,97.267 288.194,97.224 288.125 C 97.182 288.056,96.781 288.000,96.333 288.000 C 95.886 288.000,95.485 288.056,95.442 288.125 M106.544 288.120 C 106.797 288.158,107.172 288.157,107.377 288.117 C 107.582 288.078,107.375 288.046,106.917 288.048 C 106.458 288.049,106.291 288.081,106.544 288.120 M127.125 288.122 C 127.515 288.157,128.152 288.157,128.542 288.122 C 128.931 288.087,128.612 288.058,127.833 288.058 C 127.054 288.058,126.735 288.087,127.125 288.122 M131.713 288.123 C 132.152 288.157,132.827 288.157,133.213 288.122 C 133.600 288.087,133.242 288.059,132.417 288.059 C 131.592 288.060,131.275 288.088,131.713 288.123 M139.080 288.200 C 139.034 288.319,139.017 291.642,139.042 295.583 L 139.087 302.750 139.127 295.458 L 139.167 288.167 139.998 288.167 L 140.830 288.167 140.876 295.375 L 140.922 302.583 140.919 295.333 L 140.917 288.083 140.040 288.033 C 139.435 287.998,139.137 288.050,139.080 288.200 M164.375 288.119 C 164.627 288.158,165.040 288.158,165.292 288.119 C 165.544 288.081,165.337 288.050,164.833 288.050 C 164.329 288.050,164.123 288.081,164.375 288.119 M188.711 288.120 C 188.964 288.158,189.339 288.157,189.544 288.117 C 189.749 288.078,189.542 288.046,189.083 288.048 C 188.625 288.049,188.457 288.081,188.711 288.120 M197.377 288.120 C 197.631 288.158,198.006 288.157,198.211 288.117 C 198.416 288.078,198.208 288.046,197.750 288.048 C 197.292 288.049,197.124 288.081,197.377 288.120 M206.044 288.120 C 206.297 288.158,206.672 288.157,206.877 288.117 C 207.082 288.078,206.875 288.046,206.417 288.048 C 205.958 288.049,205.791 288.081,206.044 288.120 M212.711 288.120 C 212.964 288.158,213.339 288.157,213.544 288.117 C 213.749 288.078,213.542 288.046,213.083 288.048 C 212.625 288.049,212.457 288.081,212.711 288.120 M218.792 288.122 C 219.181 288.157,219.819 288.157,220.208 288.122 C 220.598 288.087,220.279 288.058,219.500 288.058 C 218.721 288.058,218.402 288.087,218.792 288.122 M223.213 288.123 C 223.652 288.157,224.327 288.157,224.713 288.122 C 225.100 288.087,224.742 288.059,223.917 288.059 C 223.092 288.060,222.775 288.088,223.213 288.123 M265.372 288.117 L 266.162 288.185 266.210 292.884 L 266.258 297.583 266.254 292.833 L 266.250 288.083 265.417 288.066 L 264.583 288.049 265.372 288.117 M274.377 288.120 C 274.631 288.158,275.006 288.157,275.211 288.117 C 275.416 288.078,275.208 288.046,274.750 288.048 C 274.292 288.049,274.124 288.081,274.377 288.120 M280.463 288.122 C 280.855 288.157,281.455 288.157,281.796 288.121 C 282.137 288.085,281.817 288.057,281.083 288.057 C 280.350 288.058,280.071 288.087,280.463 288.122 M284.880 288.123 C 285.318 288.157,285.993 288.157,286.380 288.122 C 286.767 288.087,286.408 288.059,285.583 288.059 C 284.758 288.060,284.442 288.088,284.880 288.123 M335.211 288.120 C 335.464 288.158,335.839 288.157,336.044 288.117 C 336.249 288.078,336.042 288.046,335.583 288.048 C 335.125 288.049,334.957 288.081,335.211 288.120 M378.576 288.208 C 378.532 288.323,378.517 291.642,378.542 295.583 L 378.587 302.750 378.627 295.467 L 378.667 288.185 379.458 288.123 L 380.250 288.060 379.453 288.030 C 378.945 288.011,378.627 288.076,378.576 288.208 " stroke="none" fill="#908c8c" fill-rule="evenodd"></path><path id="path2" d="M188.044 44.786 C 188.297 44.825,188.672 44.824,188.877 44.784 C 189.082 44.744,188.875 44.713,188.417 44.714 C 187.958 44.716,187.791 44.748,188.044 44.786 M274.114 212.125 C 275.690 212.152,278.315 212.152,279.948 212.125 C 281.581 212.097,280.292 212.075,277.083 212.075 C 273.875 212.075,272.539 212.097,274.114 212.125 M290.909 240.333 C 290.909 244.046,290.931 245.565,290.958 243.708 C 290.985 241.852,290.985 238.815,290.958 236.958 C 290.931 235.102,290.909 236.621,290.909 240.333 M356.745 292.333 C 356.745 298.063,356.766 300.406,356.792 297.542 C 356.817 294.677,356.817 289.990,356.792 287.125 C 356.766 284.260,356.745 286.604,356.745 292.333 M37.544 288.120 C 37.797 288.158,38.172 288.157,38.377 288.117 C 38.582 288.078,38.375 288.046,37.917 288.048 C 37.458 288.049,37.291 288.081,37.544 288.120 M86.211 288.120 C 86.464 288.158,86.839 288.157,87.044 288.117 C 87.249 288.078,87.042 288.046,86.583 288.048 C 86.125 288.049,85.957 288.081,86.211 288.120 M95.442 288.125 C 95.400 288.194,95.801 288.250,96.333 288.250 C 96.866 288.250,97.267 288.194,97.224 288.125 C 97.182 288.056,96.781 288.000,96.333 288.000 C 95.886 288.000,95.485 288.056,95.442 288.125 M106.544 288.120 C 106.797 288.158,107.172 288.157,107.377 288.117 C 107.582 288.078,107.375 288.046,106.917 288.048 C 106.458 288.049,106.291 288.081,106.544 288.120 M127.125 288.122 C 127.515 288.157,128.152 288.157,128.542 288.122 C 128.931 288.087,128.612 288.058,127.833 288.058 C 127.054 288.058,126.735 288.087,127.125 288.122 M131.713 288.123 C 132.152 288.157,132.827 288.157,133.213 288.122 C 133.600 288.087,133.242 288.059,132.417 288.059 C 131.592 288.060,131.275 288.088,131.713 288.123 M139.080 288.200 C 139.034 288.319,139.017 291.642,139.042 295.583 L 139.087 302.750 139.127 295.458 L 139.167 288.167 139.998 288.167 L 140.830 288.167 140.876 295.375 L 140.922 302.583 140.919 295.333 L 140.917 288.083 140.040 288.033 C 139.435 287.998,139.137 288.050,139.080 288.200 M164.375 288.119 C 164.627 288.158,165.040 288.158,165.292 288.119 C 165.544 288.081,165.337 288.050,164.833 288.050 C 164.329 288.050,164.123 288.081,164.375 288.119 M188.711 288.120 C 188.964 288.158,189.339 288.157,189.544 288.117 C 189.749 288.078,189.542 288.046,189.083 288.048 C 188.625 288.049,188.457 288.081,188.711 288.120 M197.377 288.120 C 197.631 288.158,198.006 288.157,198.211 288.117 C 198.416 288.078,198.208 288.046,197.750 288.048 C 197.292 288.049,197.124 288.081,197.377 288.120 M206.044 288.120 C 206.297 288.158,206.672 288.157,206.877 288.117 C 207.082 288.078,206.875 288.046,206.417 288.048 C 205.958 288.049,205.791 288.081,206.044 288.120 M212.711 288.120 C 212.964 288.158,213.339 288.157,213.544 288.117 C 213.749 288.078,213.542 288.046,213.083 288.048 C 212.625 288.049,212.457 288.081,212.711 288.120 M218.792 288.122 C 219.181 288.157,219.819 288.157,220.208 288.122 C 220.598 288.087,220.279 288.058,219.500 288.058 C 218.721 288.058,218.402 288.087,218.792 288.122 M223.213 288.123 C 223.652 288.157,224.327 288.157,224.713 288.122 C 225.100 288.087,224.742 288.059,223.917 288.059 C 223.092 288.060,222.775 288.088,223.213 288.123 M265.372 288.117 L 266.162 288.185 266.210 292.884 L 266.258 297.583 266.254 292.833 L 266.250 288.083 265.417 288.066 L 264.583 288.049 265.372 288.117 M274.377 288.120 C 274.631 288.158,275.006 288.157,275.211 288.117 C 275.416 288.078,275.208 288.046,274.750 288.048 C 274.292 288.049,274.124 288.081,274.377 288.120 M280.463 288.122 C 280.855 288.157,281.455 288.157,281.796 288.121 C 282.137 288.085,281.817 288.057,281.083 288.057 C 280.350 288.058,280.071 288.087,280.463 288.122 M284.880 288.123 C 285.318 288.157,285.993 288.157,286.380 288.122 C 286.767 288.087,286.408 288.059,285.583 288.059 C 284.758 288.060,284.442 288.088,284.880 288.123 M335.211 288.120 C 335.464 288.158,335.839 288.157,336.044 288.117 C 336.249 288.078,336.042 288.046,335.583 288.048 C 335.125 288.049,334.957 288.081,335.211 288.120 M378.576 288.208 C 378.532 288.323,378.517 291.642,378.542 295.583 L 378.587 302.750 378.627 295.467 L 378.667 288.185 379.458 288.123 L 380.250 288.060 379.453 288.030 C 378.945 288.011,378.627 288.076,378.576 288.208 " stroke="none" fill="#908c8c" fill-rule="evenodd"></path><path id="path3" d="M188.044 44.786 C 188.297 44.825,188.672 44.824,188.877 44.784 C 189.082 44.744,188.875 44.713,188.417 44.714 C 187.958 44.716,187.791 44.748,188.044 44.786 M274.114 212.125 C 275.690 212.152,278.315 212.152,279.948 212.125 C 281.581 212.097,280.292 212.075,277.083 212.075 C 273.875 212.075,272.539 212.097,274.114 212.125 M290.909 240.333 C 290.909 244.046,290.931 245.565,290.958 243.708 C 290.985 241.852,290.985 238.815,290.958 236.958 C 290.931 235.102,290.909 236.621,290.909 240.333 M356.745 292.333 C 356.745 298.063,356.766 300.406,356.792 297.542 C 356.817 294.677,356.817 289.990,356.792 287.125 C 356.766 284.260,356.745 286.604,356.745 292.333 M37.544 288.120 C 37.797 288.158,38.172 288.157,38.377 288.117 C 38.582 288.078,38.375 288.046,37.917 288.048 C 37.458 288.049,37.291 288.081,37.544 288.120 M86.211 288.120 C 86.464 288.158,86.839 288.157,87.044 288.117 C 87.249 288.078,87.042 288.046,86.583 288.048 C 86.125 288.049,85.957 288.081,86.211 288.120 M95.442 288.125 C 95.400 288.194,95.801 288.250,96.333 288.250 C 96.866 288.250,97.267 288.194,97.224 288.125 C 97.182 288.056,96.781 288.000,96.333 288.000 C 95.886 288.000,95.485 288.056,95.442 288.125 M106.544 288.120 C 106.797 288.158,107.172 288.157,107.377 288.117 C 107.582 288.078,107.375 288.046,106.917 288.048 C 106.458 288.049,106.291 288.081,106.544 288.120 M127.125 288.122 C 127.515 288.157,128.152 288.157,128.542 288.122 C 128.931 288.087,128.612 288.058,127.833 288.058 C 127.054 288.058,126.735 288.087,127.125 288.122 M131.713 288.123 C 132.152 288.157,132.827 288.157,133.213 288.122 C 133.600 288.087,133.242 288.059,132.417 288.059 C 131.592 288.060,131.275 288.088,131.713 288.123 M139.080 288.200 C 139.034 288.319,139.017 291.642,139.042 295.583 L 139.087 302.750 139.127 295.458 L 139.167 288.167 139.998 288.167 L 140.830 288.167 140.876 295.375 L 140.922 302.583 140.919 295.333 L 140.917 288.083 140.040 288.033 C 139.435 287.998,139.137 288.050,139.080 288.200 M164.375 288.119 C 164.627 288.158,165.040 288.158,165.292 288.119 C 165.544 288.081,165.337 288.050,164.833 288.050 C 164.329 288.050,164.123 288.081,164.375 288.119 M188.711 288.120 C 188.964 288.158,189.339 288.157,189.544 288.117 C 189.749 288.078,189.542 288.046,189.083 288.048 C 188.625 288.049,188.457 288.081,188.711 288.120 M197.377 288.120 C 197.631 288.158,198.006 288.157,198.211 288.117 C 198.416 288.078,198.208 288.046,197.750 288.048 C 197.292 288.049,197.124 288.081,197.377 288.120 M206.044 288.120 C 206.297 288.158,206.672 288.157,206.877 288.117 C 207.082 288.078,206.875 288.046,206.417 288.048 C 205.958 288.049,205.791 288.081,206.044 288.120 M212.711 288.120 C 212.964 288.158,213.339 288.157,213.544 288.117 C 213.749 288.078,213.542 288.046,213.083 288.048 C 212.625 288.049,212.457 288.081,212.711 288.120 M218.792 288.122 C 219.181 288.157,219.819 288.157,220.208 288.122 C 220.598 288.087,220.279 288.058,219.500 288.058 C 218.721 288.058,218.402 288.087,218.792 288.122 M223.213 288.123 C 223.652 288.157,224.327 288.157,224.713 288.122 C 225.100 288.087,224.742 288.059,223.917 288.059 C 223.092 288.060,222.775 288.088,223.213 288.123 M265.372 288.117 L 266.162 288.185 266.210 292.884 L 266.258 297.583 266.254 292.833 L 266.250 288.083 265.417 288.066 L 264.583 288.049 265.372 288.117 M274.377 288.120 C 274.631 288.158,275.006 288.157,275.211 288.117 C 275.416 288.078,275.208 288.046,274.750 288.048 C 274.292 288.049,274.124 288.081,274.377 288.120 M280.463 288.122 C 280.855 288.157,281.455 288.157,281.796 288.121 C 282.137 288.085,281.817 288.057,281.083 288.057 C 280.350 288.058,280.071 288.087,280.463 288.122 M284.880 288.123 C 285.318 288.157,285.993 288.157,286.380 288.122 C 286.767 288.087,286.408 288.059,285.583 288.059 C 284.758 288.060,284.442 288.088,284.880 288.123 M335.211 288.120 C 335.464 288.158,335.839 288.157,336.044 288.117 C 336.249 288.078,336.042 288.046,335.583 288.048 C 335.125 288.049,334.957 288.081,335.211 288.120 M378.576 288.208 C 378.532 288.323,378.517 291.642,378.542 295.583 L 378.587 302.750 378.627 295.467 L 378.667 288.185 379.458 288.123 L 380.250 288.060 379.453 288.030 C 378.945 288.011,378.627 288.076,378.576 288.208 " stroke="none" fill="#908c8c" fill-rule="evenodd"></path><path id="path4" d="M188.044 44.786 C 188.297 44.825,188.672 44.824,188.877 44.784 C 189.082 44.744,188.875 44.713,188.417 44.714 C 187.958 44.716,187.791 44.748,188.044 44.786 M274.114 212.125 C 275.690 212.152,278.315 212.152,279.948 212.125 C 281.581 212.097,280.292 212.075,277.083 212.075 C 273.875 212.075,272.539 212.097,274.114 212.125 M290.909 240.333 C 290.909 244.046,290.931 245.565,290.958 243.708 C 290.985 241.852,290.985 238.815,290.958 236.958 C 290.931 235.102,290.909 236.621,290.909 240.333 M356.745 292.333 C 356.745 298.063,356.766 300.406,356.792 297.542 C 356.817 294.677,356.817 289.990,356.792 287.125 C 356.766 284.260,356.745 286.604,356.745 292.333 M37.544 288.120 C 37.797 288.158,38.172 288.157,38.377 288.117 C 38.582 288.078,38.375 288.046,37.917 288.048 C 37.458 288.049,37.291 288.081,37.544 288.120 M86.211 288.120 C 86.464 288.158,86.839 288.157,87.044 288.117 C 87.249 288.078,87.042 288.046,86.583 288.048 C 86.125 288.049,85.957 288.081,86.211 288.120 M95.442 288.125 C 95.400 288.194,95.801 288.250,96.333 288.250 C 96.866 288.250,97.267 288.194,97.224 288.125 C 97.182 288.056,96.781 288.000,96.333 288.000 C 95.886 288.000,95.485 288.056,95.442 288.125 M106.544 288.120 C 106.797 288.158,107.172 288.157,107.377 288.117 C 107.582 288.078,107.375 288.046,106.917 288.048 C 106.458 288.049,106.291 288.081,106.544 288.120 M127.125 288.122 C 127.515 288.157,128.152 288.157,128.542 288.122 C 128.931 288.087,128.612 288.058,127.833 288.058 C 127.054 288.058,126.735 288.087,127.125 288.122 M131.713 288.123 C 132.152 288.157,132.827 288.157,133.213 288.122 C 133.600 288.087,133.242 288.059,132.417 288.059 C 131.592 288.060,131.275 288.088,131.713 288.123 M139.080 288.200 C 139.034 288.319,139.017 291.642,139.042 295.583 L 139.087 302.750 139.127 295.458 L 139.167 288.167 139.998 288.167 L 140.830 288.167 140.876 295.375 L 140.922 302.583 140.919 295.333 L 140.917 288.083 140.040 288.033 C 139.435 287.998,139.137 288.050,139.080 288.200 M164.375 288.119 C 164.627 288.158,165.040 288.158,165.292 288.119 C 165.544 288.081,165.337 288.050,164.833 288.050 C 164.329 288.050,164.123 288.081,164.375 288.119 M188.711 288.120 C 188.964 288.158,189.339 288.157,189.544 288.117 C 189.749 288.078,189.542 288.046,189.083 288.048 C 188.625 288.049,188.457 288.081,188.711 288.120 M197.377 288.120 C 197.631 288.158,198.006 288.157,198.211 288.117 C 198.416 288.078,198.208 288.046,197.750 288.048 C 197.292 288.049,197.124 288.081,197.377 288.120 M206.044 288.120 C 206.297 288.158,206.672 288.157,206.877 288.117 C 207.082 288.078,206.875 288.046,206.417 288.048 C 205.958 288.049,205.791 288.081,206.044 288.120 M212.711 288.120 C 212.964 288.158,213.339 288.157,213.544 288.117 C 213.749 288.078,213.542 288.046,213.083 288.048 C 212.625 288.049,212.457 288.081,212.711 288.120 M218.792 288.122 C 219.181 288.157,219.819 288.157,220.208 288.122 C 220.598 288.087,220.279 288.058,219.500 288.058 C 218.721 288.058,218.402 288.087,218.792 288.122 M223.213 288.123 C 223.652 288.157,224.327 288.157,224.713 288.122 C 225.100 288.087,224.742 288.059,223.917 288.059 C 223.092 288.060,222.775 288.088,223.213 288.123 M265.372 288.117 L 266.162 288.185 266.210 292.884 L 266.258 297.583 266.254 292.833 L 266.250 288.083 265.417 288.066 L 264.583 288.049 265.372 288.117 M274.377 288.120 C 274.631 288.158,275.006 288.157,275.211 288.117 C 275.416 288.078,275.208 288.046,274.750 288.048 C 274.292 288.049,274.124 288.081,274.377 288.120 M280.463 288.122 C 280.855 288.157,281.455 288.157,281.796 288.121 C 282.137 288.085,281.817 288.057,281.083 288.057 C 280.350 288.058,280.071 288.087,280.463 288.122 M284.880 288.123 C 285.318 288.157,285.993 288.157,286.380 288.122 C 286.767 288.087,286.408 288.059,285.583 288.059 C 284.758 288.060,284.442 288.088,284.880 288.123 M335.211 288.120 C 335.464 288.158,335.839 288.157,336.044 288.117 C 336.249 288.078,336.042 288.046,335.583 288.048 C 335.125 288.049,334.957 288.081,335.211 288.120 M378.576 288.208 C 378.532 288.323,378.517 291.642,378.542 295.583 L 378.587 302.750 378.627 295.467 L 378.667 288.185 379.458 288.123 L 380.250 288.060 379.453 288.030 C 378.945 288.011,378.627 288.076,378.576 288.208 " stroke="none" fill="#908c8c" fill-rule="evenodd"></path></g></svg>